<svg id="Layer_1" data-name="Layer 1" xmlns="http://www.w3.org/2000/svg" viewBox="0 0 1020.35 495.85"><defs><style>.cls-1{fill:none;}</style></defs><title>DS_VECTOR_DARK</title><path d="M325.62,183.6C143,319,162.36,593,320.33,662.1c3.71.17,7.44.27,11.19.27a239.09,239.09,0,0,0,224.36-157.3h9a248.23,248.23,0,1,1,4.81-148.91,58.37,58.37,0,0,0-9.07-.81A239.06,239.06,0,0,0,331.52,183.52c-2,0-3.94,0-5.9.08" transform="translate(-83.6 -175.02)"/><path d="M859.81,499.43h38.45V403.77H859.81ZM902.74,361V499.4h60.47c19.06,0,35.39-6.78,48.81-20.24s20.3-29.81,20.3-49-6.77-35.49-20.3-48.91S982.27,361,963.21,361ZM941.19,461V399.33h22a29.59,29.59,0,0,1,21.93,9A31,31,0,0,1,985,452a29.47,29.47,0,0,1-21.74,9ZM1003.72,361v7.62a77.46,77.46,0,0,1,11.43,9.45c14.36,14.3,21.61,31.78,21.61,52.05s-7.22,37.81-21.6,52.17a78.29,78.29,0,0,1-11.44,9.48v7.62H1104V461h-61.78v-11.4H1104V411.1h-61.78V399.33H1104V361ZM898.26,399.33V361H788.05c-9,0-16.77,3.47-23.2,10.3a34.17,34.17,0,0,0-9.54,24.21c0,7.53,2,13.85,6.12,18.83L806,461H746V499.4h71q13.44,0,23.2-10.3a34.55,34.55,0,0,0,9.64-24.24,32.89,32.89,0,0,0-6-18.74c-29.49-30.82-44.48-46.43-44.78-46.79Z" transform="translate(-83.6 -175.02)"/><path class="cls-1" d="M556.41,405H533v18.93h23.43a9.42,9.42,0,0,0,9.44-9.48,9.44,9.44,0,0,0-9.44-9.45Z" transform="translate(-83.6 -175.02)"/><path class="cls-1" d="M350.23,399.33h-22V461h22A29.46,29.46,0,0,0,372,452a30.72,30.72,0,0,0-21.73-52.63Z" transform="translate(-83.6 -175.02)"/><polygon class="cls-1" points="357.09 274.59 383.25 274.59 370.19 240.02 357.09 274.59"/><path d="M430.59,361l-14.35,36.25a72,72,0,0,1,7.53,32.87c0,20.32-7.22,37.81-21.6,52.17a72.51,72.51,0,0,1-26.34,17.13h46.06L427,485.71h53.37l5.24,13.72h44.22L477,361Zm10.1,88.6L453.79,415l13.06,34.57Z" transform="translate(-83.6 -175.02)"/><path d="M419.34,430.13c0-19.13-6.78-35.49-20.3-48.91S369.29,361,350.23,361H289.75V499.4h60.48c19.06,0,35.38-6.78,48.81-20.24S419.34,449.35,419.34,430.13ZM372,452a29.46,29.46,0,0,1-21.73,9h-22V399.33h22a29.56,29.56,0,0,1,21.92,9A31,31,0,0,1,372,452Z" transform="translate(-83.6 -175.02)"/><path d="M595.69,461H580.35a62.36,62.36,0,0,0,22-20.1,50.82,50.82,0,0,0,8.5-28.38,51.52,51.52,0,0,0-51-51.46H494.53v33.55L533,495.14V474.7l22.84,24.7h82.87c-9.17-2.08-23.17-12.29-30.56-20.52A84.74,84.74,0,0,1,595.69,461Zm-32.6-39.78a9.3,9.3,0,0,1-6.68,2.76H533V405h23.43a9.44,9.44,0,0,1,9.44,9.45A9.31,9.31,0,0,1,563.09,421.17Z" transform="translate(-83.6 -175.02)"/><path d="M663.24,399.33H716V361H663.24c-19.19,0-35.52,6.78-48.94,20.21a72.67,72.67,0,0,0-5.11,5.64A56.54,56.54,0,0,1,606,443.29a64.28,64.28,0,0,1-8.18,10c.37,1.08.78,2.14,1.21,3.2a78.68,78.68,0,0,0,15.49,23.05,71.64,71.64,0,0,0,5.27,4.93,61,61,0,0,0,40.31,14.84q1.54.06,3.12.06H716V461H663.24c-1.06,0-2.1-.05-3.12-.14a21.63,21.63,0,0,1-13-4.29,32.62,32.62,0,0,1-5.69-4.56,30.72,30.72,0,0,1,21.77-52.63Z" transform="translate(-83.6 -175.02)"/></svg>